<svg xmlns="http://www.w3.org/2000/svg" viewBox="0 0 1024 1024" xmlns:xlink="http://www.w3.org/1999/xlink">
  <path d="M667.435362 81.733059l28.640668 22.116347s155.699079-6.41374 263.184523 201.479916c0 0 43.016294 88.465386 41.689313 142.539853 0 0-168.084233-43.126876-256.549619-151.054646S685.570766 110.594891 685.570766 110.594891L653.391482 86.377492l-12.163991-9.731192 7.187813-9.510029z" fill="#026E29"/>
  <path d="M697.624175 9.523188l2.432798 4.423269a17.803659 17.803659 0 0 1-6.081996 23.775073 143.756252 143.756252 0 0 0-68.781837 114.783838 17.803659 17.803659 0 0 1-17.803659 16.919005 17.803659 17.803659 0 0 1-17.361332-22.116346c9.399447-36.934299 33.17452-109.918242 81.830482-143.756252A17.803659 17.803659 0 0 1 697.624175 9.523188z" fill="#026E29"/>
  <path d="M814.951393 372.89476a427.73014 427.73014 0 0 0-50.204107-98.417741A453.385102 453.385102 0 0 1 99.045258 840.434324a384.382101 384.382101 0 0 0 116.2214 112.019295 87.912477 87.912477 0 0 0 142.429272 51.309924c197.830719 27.42427 398.094236-110.581732 463.226876-329.42298a483.90566 483.90566 0 0 0-5.971413-301.445803z" fill="#95BF22"/>
  <path d="M806.657763 465.009343a451.062886 451.062886 0 0 0-41.910477-190.532324 375.97789 375.97789 0 0 0-202.585733-149.838248C347.743574 60.611949 115.853681 202.709474 44.196719 442.340088A478.265992 478.265992 0 0 0 67.308301 784.148223 428.172467 428.172467 0 0 0 99.045258 840.434324a453.385102 453.385102 0 0 0 707.723086-375.093235z" fill="#9CCC01"/>
  <path d="M535.069028 482.923584a19.020058 19.020058 0 0 0 0-38.040116 19.020058 19.020058 0 0 0 0 38.040116zM415.861921 505.371676a19.020058 19.020058 0 0 0 0-38.040116 19.020058 19.020058 0 0 0 0 38.040116zM543.804985 582.668307a19.020058 19.020058 0 0 0 0-38.040116 19.020058 19.020058 0 0 0 0 38.040116zM297.318304 549.383205a19.020058 19.020058 0 0 0 0-38.040116 19.020058 19.020058 0 0 0 0 38.040116zM409.337599 619.27086a19.020058 19.020058 0 0 0 0-38.040116 19.020058 19.020058 0 0 0 0 38.040116zM501.231018 707.736246a19.020058 19.020058 0 0 0 0-38.040116 19.020058 19.020058 0 0 0 0 38.040116zM313.463237 680.311976a19.020058 19.020058 0 0 0 0-37.929534 19.020058 19.020058 0 0 0 0 37.929534zM410.111671 743.675309a19.020058 19.020058 0 0 0 0-38.040116 19.020058 19.020058 0 0 0 0 38.040116zM330.161078 209.012633A266.280811 266.280811 0 0 0 124.921383 401.203684c-8.072466 29.857068 38.150698 42.573967 46.223164 12.716899a218.841248 218.841248 0 0 1 171.844012-158.684786c30.188813-5.860832 17.361332-51.973414-12.827481-46.223164z" fill="#B6D840"/>
  <path d="M133.65734 110.594891c21.342274 11.058173 162.002238 77.407213 289.060648 57.281338 123.740958-19.13064 160.564675-83.710371 166.867834-96.759016C441.295719 39.712001 244.239072 81.511896 133.65734 110.594891z" fill="#187C39"/>
  <path d="M623.755577 59.727295l-35.828481-2.764544S476.46071-51.849673 257.398298 31.307789c0 0-90.898184 37.04488-126.173756 78.291867L133.65734 110.594891c110.581732-29.082996 307.638379-70.88289 456.260227-39.035351l0.995236-2.322216 39.809424 3.096288 15.923769 1.216399 0.995236-11.942827z" fill="#026E29"/>
</svg>